<svg xmlns="http://www.w3.org/2000/svg" xmlns:xlink="http://www.w3.org/1999/xlink" width="500" zoomAndPan="magnify" viewBox="0 0 375 374.999991" height="500" preserveAspectRatio="xMidYMid meet" version="1.0"><defs><g/><clipPath id="30d1cd968a"><path d="M 37.5 37.5 L 337.5 37.5 L 337.5 337.5 L 37.5 337.5 Z M 37.5 37.5 " clip-rule="nonzero"/></clipPath><clipPath id="81b626e5c8"><path d="M 187.5 337.5 C 147.453125 337.5 109.742188 321.914062 81.445312 293.554688 C 53.085938 265.257812 37.5 227.546875 37.5 187.5 C 37.5 147.453125 53.085938 109.742188 81.445312 81.445312 C 109.742188 53.085938 147.453125 37.5 187.5 37.5 C 227.546875 37.5 265.257812 53.085938 293.554688 81.445312 C 321.914062 109.800781 337.5 147.453125 337.5 187.5 C 337.5 227.546875 321.914062 265.257812 293.554688 293.554688 C 265.257812 321.914062 227.546875 337.5 187.5 337.5 Z M 187.5 46.492188 C 149.851562 46.492188 114.417969 61.179688 87.800781 87.800781 C 61.179688 114.417969 46.492188 149.851562 46.492188 187.5 C 46.492188 225.148438 61.179688 260.582031 87.800781 287.199219 C 114.417969 313.820312 149.851562 328.507812 187.5 328.507812 C 225.148438 328.507812 260.582031 313.820312 287.199219 287.199219 C 313.820312 260.582031 328.507812 225.148438 328.507812 187.5 C 328.507812 149.851562 313.820312 114.417969 287.199219 87.800781 C 260.582031 61.179688 225.148438 46.492188 187.5 46.492188 Z M 187.5 46.492188 " clip-rule="nonzero"/></clipPath><clipPath id="1a59fd7ffc"><path d="M 47.554688 170.953125 L 327.445312 170.953125 L 327.445312 191.683594 L 47.554688 191.683594 Z M 47.554688 170.953125 " clip-rule="nonzero"/></clipPath></defs><rect x="-37.5" width="450" fill="#ffffff" y="-37.499999" height="449.999989" fill-opacity="1"/><rect x="-37.5" width="450" fill="#ffffff" y="-37.499999" height="449.999989" fill-opacity="1"/><g clip-path="url(#30d1cd968a)"><g clip-path="url(#81b626e5c8)"><path fill="#000000" d="M 37.5 37.5 L 337.5 37.5 L 337.5 337.5 L 37.5 337.5 Z M 37.5 37.5 " fill-opacity="1" fill-rule="nonzero"/></g></g><g fill="#000000" fill-opacity="1"><g transform="translate(89.801579, 230.972926)"><g><path d="M 3.140625 -104.484375 L 19.953125 -104.484375 L 60.078125 -20.265625 L 91.421875 -104.484375 L 109.8125 -104.484375 L 109.8125 -103.4375 C 106.8125 -103.4375 104.632812 -102.53125 103.28125 -100.71875 C 101.925781 -98.90625 101.070312 -95.960938 100.71875 -91.890625 C 100.375 -87.816406 100.203125 -82.332031 100.203125 -75.4375 L 100.203125 -29.046875 C 100.203125 -22.222656 100.375 -16.753906 100.71875 -12.640625 C 101.070312 -8.535156 101.925781 -5.578125 103.28125 -3.765625 C 104.632812 -1.953125 106.8125 -1.046875 109.8125 -1.046875 L 109.8125 0 L 81.609375 0 L 81.609375 -1.046875 C 84.597656 -1.046875 86.769531 -1.953125 88.125 -3.765625 C 89.488281 -5.578125 90.34375 -8.535156 90.6875 -12.640625 C 91.039062 -16.753906 91.21875 -22.222656 91.21875 -29.046875 L 91.21875 -101.03125 C 87.457031 -91 83.726562 -81.003906 80.03125 -71.046875 C 76.34375 -61.085938 72.582031 -50.898438 68.75 -40.484375 C 64.914062 -30.078125 60.84375 -19.125 56.53125 -7.625 L 55.578125 -7.625 C 52.304688 -14.664062 49.257812 -21.195312 46.4375 -27.21875 C 43.625 -33.238281 40.941406 -39 38.390625 -44.5 C 35.847656 -50.007812 33.289062 -55.5 30.71875 -60.96875 C 28.144531 -66.4375 25.5 -72.113281 22.78125 -78 C 20.0625 -83.882812 17.097656 -90.238281 13.890625 -97.0625 L 13.796875 -52.234375 L 13.796875 -38.96875 C 13.796875 -31.375 14.28125 -25.101562 15.25 -20.15625 C 16.226562 -15.21875 17.550781 -11.351562 19.21875 -8.5625 C 20.894531 -5.78125 22.773438 -3.832031 24.859375 -2.71875 C 26.953125 -1.601562 29.113281 -1.046875 31.34375 -1.046875 L 31.34375 0 L 3.140625 0 L 3.140625 -1.046875 C 6.128906 -1.046875 8.300781 -1.953125 9.65625 -3.765625 C 11.019531 -5.578125 11.875 -8.535156 12.21875 -12.640625 C 12.570312 -16.753906 12.75 -22.222656 12.75 -29.046875 L 12.75 -75.4375 C 12.75 -82.332031 12.570312 -87.816406 12.21875 -91.890625 C 11.875 -95.960938 11.019531 -98.90625 9.65625 -100.71875 C 8.300781 -102.53125 6.128906 -103.4375 3.140625 -103.4375 Z M 3.140625 -104.484375 "/></g></g></g><g fill="#000000" fill-opacity="1"><g transform="translate(202.743499, 230.972926)"><g><path d="M 76.484375 0 L 3.140625 0 L 68.546875 -103.4375 L 38.765625 -103.4375 C 32.773438 -103.4375 27.445312 -102.859375 22.78125 -101.703125 C 18.113281 -100.554688 14.457031 -99.039062 11.8125 -97.15625 C 9.164062 -95.28125 7.84375 -93.160156 7.84375 -90.796875 L 7.84375 -90.375 L 6.796875 -90.375 L 6.796875 -104.484375 L 79.296875 -104.484375 L 13.890625 -1.046875 L 28.84375 -1.046875 C 30.507812 -1.046875 32.785156 -1.097656 35.671875 -1.203125 C 38.566406 -1.304688 41.773438 -1.53125 45.296875 -1.875 C 48.816406 -2.226562 52.332031 -2.769531 55.84375 -3.5 C 59.363281 -4.226562 62.601562 -5.1875 65.5625 -6.375 C 68.519531 -7.5625 70.90625 -9.039062 72.71875 -10.8125 C 74.53125 -12.59375 75.4375 -14.734375 75.4375 -17.234375 L 76.484375 -17.234375 Z M 76.484375 0 "/></g></g></g><g clip-path="url(#1a59fd7ffc)"><path fill="#ffffff" d="M 47.554688 170.953125 L 327.460938 170.953125 L 327.460938 191.683594 L 47.554688 191.683594 Z M 47.554688 170.953125 " fill-opacity="1" fill-rule="nonzero"/></g><g fill="#000000" fill-opacity="1"><g transform="translate(129.836846, 189.646937)"><g><path d="M 13.421875 -0.140625 C 13.421875 -0.0859375 13.398438 -0.0390625 13.359375 0 C 13.316406 0.0390625 13.269531 0.0625 13.21875 0.0625 L 11.609375 0 L 10.1875 0.0625 C 10.050781 0.0625 9.984375 0.00390625 9.984375 -0.109375 C 9.984375 -0.234375 10.035156 -0.304688 10.140625 -0.328125 L 10.375 -0.359375 C 10.78125 -0.410156 10.984375 -0.609375 10.984375 -0.953125 L 10.875 -7.734375 C 10.875 -7.835938 10.84375 -7.890625 10.78125 -7.890625 C 10.75 -7.890625 10.726562 -7.875 10.71875 -7.84375 L 6.828125 -0.03125 C 6.773438 0.0507812 6.710938 0.09375 6.640625 0.09375 C 6.578125 0.09375 6.523438 0.0507812 6.484375 -0.03125 L 2.578125 -7.609375 C 2.566406 -7.640625 2.546875 -7.65625 2.515625 -7.65625 C 2.453125 -7.65625 2.421875 -7.609375 2.421875 -7.515625 L 2.34375 -0.953125 C 2.34375 -0.628906 2.535156 -0.4375 2.921875 -0.375 L 3.15625 -0.328125 C 3.28125 -0.304688 3.34375 -0.238281 3.34375 -0.125 C 3.34375 -0.0078125 3.269531 0.046875 3.125 0.046875 L 1.953125 0 L 0.5625 0.046875 C 0.425781 0.046875 0.359375 -0.0078125 0.359375 -0.125 C 0.359375 -0.238281 0.410156 -0.304688 0.515625 -0.328125 L 0.9375 -0.375 C 1.375 -0.414062 1.59375 -0.609375 1.59375 -0.953125 L 1.765625 -9.109375 C 1.773438 -9.441406 1.582031 -9.628906 1.1875 -9.671875 L 0.9375 -9.703125 C 0.820312 -9.722656 0.765625 -9.789062 0.765625 -9.90625 C 0.765625 -10.03125 0.832031 -10.09375 0.96875 -10.09375 L 2.234375 -10.046875 C 2.566406 -10.035156 2.773438 -9.941406 2.859375 -9.765625 L 6.921875 -1.71875 L 10.890625 -9.765625 C 10.972656 -9.929688 11.179688 -10.023438 11.515625 -10.046875 L 12.796875 -10.09375 C 12.953125 -10.09375 13.03125 -10.03125 13.03125 -9.90625 C 13.03125 -9.789062 12.972656 -9.722656 12.859375 -9.703125 L 12.59375 -9.671875 C 12.21875 -9.648438 12.03125 -9.460938 12.03125 -9.109375 L 12.203125 -0.953125 C 12.203125 -0.773438 12.257812 -0.632812 12.375 -0.53125 C 12.5 -0.4375 12.65625 -0.378906 12.84375 -0.359375 L 13.25 -0.328125 C 13.363281 -0.328125 13.421875 -0.265625 13.421875 -0.140625 Z M 13.421875 -0.140625 "/></g></g></g><g fill="#000000" fill-opacity="1"><g transform="translate(146.493463, 189.646937)"><g><path d="M 1.671875 -3.6875 L 1.671875 -9.109375 C 1.671875 -9.453125 1.445312 -9.640625 1 -9.671875 L 0.59375 -9.71875 C 0.488281 -9.738281 0.4375 -9.800781 0.4375 -9.90625 C 0.4375 -10.039062 0.5 -10.109375 0.625 -10.109375 L 2.25 -10.046875 L 3.671875 -10.109375 C 3.816406 -10.109375 3.890625 -10.050781 3.890625 -9.9375 C 3.890625 -9.800781 3.828125 -9.726562 3.703125 -9.71875 L 3.453125 -9.671875 C 3.078125 -9.609375 2.890625 -9.421875 2.890625 -9.109375 L 2.890625 -3.671875 C 2.890625 -2.785156 3.15625 -2.09375 3.6875 -1.59375 C 4.226562 -1.09375 4.9375 -0.84375 5.8125 -0.84375 C 6.6875 -0.84375 7.394531 -1.097656 7.9375 -1.609375 C 8.476562 -2.117188 8.75 -2.804688 8.75 -3.671875 L 8.75 -9.109375 C 8.75 -9.421875 8.554688 -9.609375 8.171875 -9.671875 L 7.921875 -9.71875 C 7.796875 -9.738281 7.734375 -9.804688 7.734375 -9.921875 C 7.734375 -10.035156 7.804688 -10.09375 7.953125 -10.09375 L 9.078125 -10.046875 L 10.46875 -10.09375 C 10.601562 -10.09375 10.671875 -10.035156 10.671875 -9.921875 C 10.671875 -9.804688 10.617188 -9.738281 10.515625 -9.71875 L 10.09375 -9.671875 C 9.65625 -9.628906 9.4375 -9.441406 9.4375 -9.109375 L 9.4375 -3.6875 C 9.4375 -2.507812 9.070312 -1.570312 8.34375 -0.875 C 7.625 -0.1875 6.695312 0.15625 5.5625 0.15625 C 4.4375 0.15625 3.503906 -0.203125 2.765625 -0.921875 C 2.035156 -1.640625 1.671875 -2.5625 1.671875 -3.6875 Z M 1.671875 -3.6875 "/></g></g></g><g fill="#000000" fill-opacity="1"><g transform="translate(160.465334, 189.646937)"><g><path d="M 10.921875 -0.328125 C 11.023438 -0.328125 11.078125 -0.257812 11.078125 -0.125 C 11.078125 0 11.015625 0.0625 10.890625 0.0625 L 9.28125 0 L 7.875 0.0625 C 7.726562 0.0625 7.65625 -0.00390625 7.65625 -0.140625 C 7.65625 -0.242188 7.707031 -0.304688 7.8125 -0.328125 L 8.0625 -0.359375 C 8.445312 -0.410156 8.640625 -0.609375 8.640625 -0.953125 L 8.640625 -4.515625 C 8.640625 -4.691406 8.554688 -4.78125 8.390625 -4.78125 L 3.125 -4.78125 C 3.0625 -4.78125 3.003906 -4.753906 2.953125 -4.703125 C 2.910156 -4.648438 2.890625 -4.585938 2.890625 -4.515625 L 2.890625 -0.953125 C 2.890625 -0.609375 3.078125 -0.410156 3.453125 -0.359375 L 3.703125 -0.328125 C 3.828125 -0.304688 3.890625 -0.242188 3.890625 -0.140625 C 3.890625 -0.0859375 3.867188 -0.0390625 3.828125 0 C 3.785156 0.0390625 3.734375 0.0625 3.671875 0.0625 L 2.25 0 L 0.625 0.0625 C 0.5 0.0625 0.4375 0 0.4375 -0.125 C 0.4375 -0.257812 0.488281 -0.328125 0.59375 -0.328125 L 1 -0.359375 C 1.195312 -0.378906 1.359375 -0.4375 1.484375 -0.53125 C 1.609375 -0.632812 1.671875 -0.773438 1.671875 -0.953125 L 1.671875 -9.109375 C 1.671875 -9.453125 1.445312 -9.640625 1 -9.671875 L 0.59375 -9.71875 C 0.488281 -9.71875 0.4375 -9.78125 0.4375 -9.90625 C 0.4375 -10.039062 0.5 -10.109375 0.625 -10.109375 L 2.25 -10.046875 L 3.671875 -10.109375 C 3.816406 -10.109375 3.890625 -10.050781 3.890625 -9.9375 C 3.890625 -9.800781 3.828125 -9.726562 3.703125 -9.71875 L 3.453125 -9.671875 C 3.078125 -9.609375 2.890625 -9.421875 2.890625 -9.109375 L 2.890625 -5.734375 C 2.890625 -5.535156 2.984375 -5.4375 3.171875 -5.4375 L 8.375 -5.4375 C 8.550781 -5.4375 8.640625 -5.519531 8.640625 -5.6875 L 8.640625 -9.109375 C 8.640625 -9.421875 8.445312 -9.609375 8.0625 -9.671875 L 7.8125 -9.71875 C 7.707031 -9.738281 7.65625 -9.800781 7.65625 -9.90625 C 7.65625 -10.039062 7.726562 -10.109375 7.875 -10.109375 L 9.28125 -10.046875 L 10.890625 -10.109375 C 11.015625 -10.109375 11.078125 -10.039062 11.078125 -9.90625 C 11.078125 -9.78125 11.023438 -9.71875 10.921875 -9.71875 L 10.5 -9.671875 C 10.070312 -9.640625 9.859375 -9.453125 9.859375 -9.109375 L 9.859375 -0.953125 C 9.859375 -0.597656 10.070312 -0.398438 10.5 -0.359375 Z M 10.921875 -0.328125 "/></g></g></g><g fill="#000000" fill-opacity="1"><g transform="translate(174.853555, 189.646937)"><g><path d="M 3.265625 -3.953125 L 6.46875 -3.953125 C 6.570312 -3.953125 6.601562 -4.007812 6.5625 -4.125 L 4.859375 -8.515625 L 3.140625 -4.09375 C 3.117188 -4 3.160156 -3.953125 3.265625 -3.953125 Z M 1.921875 -0.953125 C 1.898438 -0.890625 1.890625 -0.820312 1.890625 -0.75 C 1.890625 -0.675781 1.925781 -0.59375 2 -0.5 C 2.082031 -0.414062 2.191406 -0.367188 2.328125 -0.359375 L 2.640625 -0.328125 C 2.765625 -0.304688 2.828125 -0.242188 2.828125 -0.140625 C 2.828125 -0.00390625 2.753906 0.0625 2.609375 0.0625 L 1.359375 0 L 0.0625 0.0625 C -0.0703125 0.0625 -0.140625 0 -0.140625 -0.125 C -0.140625 -0.257812 -0.0859375 -0.328125 0.015625 -0.328125 L 0.28125 -0.359375 C 0.695312 -0.410156 0.976562 -0.609375 1.125 -0.953125 L 4.8125 -10.03125 C 4.851562 -10.144531 4.960938 -10.203125 5.140625 -10.203125 C 5.328125 -10.203125 5.445312 -10.144531 5.5 -10.03125 L 9.171875 -0.953125 C 9.296875 -0.597656 9.570312 -0.398438 10 -0.359375 L 10.296875 -0.328125 C 10.335938 -0.328125 10.367188 -0.304688 10.390625 -0.265625 C 10.421875 -0.234375 10.4375 -0.195312 10.4375 -0.15625 C 10.4375 -0.0078125 10.367188 0.0625 10.234375 0.0625 L 8.59375 0 L 7.109375 0.0625 C 6.972656 0.0625 6.90625 0.00390625 6.90625 -0.109375 C 6.90625 -0.242188 6.960938 -0.316406 7.078125 -0.328125 L 7.40625 -0.359375 C 7.53125 -0.367188 7.632812 -0.414062 7.71875 -0.5 C 7.800781 -0.582031 7.84375 -0.660156 7.84375 -0.734375 C 7.84375 -0.816406 7.828125 -0.890625 7.796875 -0.953125 L 6.953125 -3.140625 C 6.921875 -3.234375 6.84375 -3.28125 6.71875 -3.28125 L 3 -3.28125 C 2.882812 -3.28125 2.804688 -3.234375 2.765625 -3.140625 Z M 1.921875 -0.953125 "/></g></g></g><g fill="#000000" fill-opacity="1"><g transform="translate(188.021434, 189.646937)"><g><path d="M 13.421875 -0.140625 C 13.421875 -0.0859375 13.398438 -0.0390625 13.359375 0 C 13.316406 0.0390625 13.269531 0.0625 13.21875 0.0625 L 11.609375 0 L 10.1875 0.0625 C 10.050781 0.0625 9.984375 0.00390625 9.984375 -0.109375 C 9.984375 -0.234375 10.035156 -0.304688 10.140625 -0.328125 L 10.375 -0.359375 C 10.78125 -0.410156 10.984375 -0.609375 10.984375 -0.953125 L 10.875 -7.734375 C 10.875 -7.835938 10.84375 -7.890625 10.78125 -7.890625 C 10.75 -7.890625 10.726562 -7.875 10.71875 -7.84375 L 6.828125 -0.03125 C 6.773438 0.0507812 6.710938 0.09375 6.640625 0.09375 C 6.578125 0.09375 6.523438 0.0507812 6.484375 -0.03125 L 2.578125 -7.609375 C 2.566406 -7.640625 2.546875 -7.65625 2.515625 -7.65625 C 2.453125 -7.65625 2.421875 -7.609375 2.421875 -7.515625 L 2.34375 -0.953125 C 2.34375 -0.628906 2.535156 -0.4375 2.921875 -0.375 L 3.15625 -0.328125 C 3.28125 -0.304688 3.34375 -0.238281 3.34375 -0.125 C 3.34375 -0.0078125 3.269531 0.046875 3.125 0.046875 L 1.953125 0 L 0.5625 0.046875 C 0.425781 0.046875 0.359375 -0.0078125 0.359375 -0.125 C 0.359375 -0.238281 0.410156 -0.304688 0.515625 -0.328125 L 0.9375 -0.375 C 1.375 -0.414062 1.59375 -0.609375 1.59375 -0.953125 L 1.765625 -9.109375 C 1.773438 -9.441406 1.582031 -9.628906 1.1875 -9.671875 L 0.9375 -9.703125 C 0.820312 -9.722656 0.765625 -9.789062 0.765625 -9.90625 C 0.765625 -10.03125 0.832031 -10.09375 0.96875 -10.09375 L 2.234375 -10.046875 C 2.566406 -10.035156 2.773438 -9.941406 2.859375 -9.765625 L 6.921875 -1.71875 L 10.890625 -9.765625 C 10.972656 -9.929688 11.179688 -10.023438 11.515625 -10.046875 L 12.796875 -10.09375 C 12.953125 -10.09375 13.03125 -10.03125 13.03125 -9.90625 C 13.03125 -9.789062 12.972656 -9.722656 12.859375 -9.703125 L 12.59375 -9.671875 C 12.21875 -9.648438 12.03125 -9.460938 12.03125 -9.109375 L 12.203125 -0.953125 C 12.203125 -0.773438 12.257812 -0.632812 12.375 -0.53125 C 12.5 -0.4375 12.65625 -0.378906 12.84375 -0.359375 L 13.25 -0.328125 C 13.363281 -0.328125 13.421875 -0.265625 13.421875 -0.140625 Z M 13.421875 -0.140625 "/></g></g></g><g fill="#000000" fill-opacity="1"><g transform="translate(204.67805, 189.646937)"><g><path d="M 13.421875 -0.140625 C 13.421875 -0.0859375 13.398438 -0.0390625 13.359375 0 C 13.316406 0.0390625 13.269531 0.0625 13.21875 0.0625 L 11.609375 0 L 10.1875 0.0625 C 10.050781 0.0625 9.984375 0.00390625 9.984375 -0.109375 C 9.984375 -0.234375 10.035156 -0.304688 10.140625 -0.328125 L 10.375 -0.359375 C 10.78125 -0.410156 10.984375 -0.609375 10.984375 -0.953125 L 10.875 -7.734375 C 10.875 -7.835938 10.84375 -7.890625 10.78125 -7.890625 C 10.75 -7.890625 10.726562 -7.875 10.71875 -7.84375 L 6.828125 -0.03125 C 6.773438 0.0507812 6.710938 0.09375 6.640625 0.09375 C 6.578125 0.09375 6.523438 0.0507812 6.484375 -0.03125 L 2.578125 -7.609375 C 2.566406 -7.640625 2.546875 -7.65625 2.515625 -7.65625 C 2.453125 -7.65625 2.421875 -7.609375 2.421875 -7.515625 L 2.34375 -0.953125 C 2.34375 -0.628906 2.535156 -0.4375 2.921875 -0.375 L 3.15625 -0.328125 C 3.28125 -0.304688 3.34375 -0.238281 3.34375 -0.125 C 3.34375 -0.0078125 3.269531 0.046875 3.125 0.046875 L 1.953125 0 L 0.5625 0.046875 C 0.425781 0.046875 0.359375 -0.0078125 0.359375 -0.125 C 0.359375 -0.238281 0.410156 -0.304688 0.515625 -0.328125 L 0.9375 -0.375 C 1.375 -0.414062 1.59375 -0.609375 1.59375 -0.953125 L 1.765625 -9.109375 C 1.773438 -9.441406 1.582031 -9.628906 1.1875 -9.671875 L 0.9375 -9.703125 C 0.820312 -9.722656 0.765625 -9.789062 0.765625 -9.90625 C 0.765625 -10.03125 0.832031 -10.09375 0.96875 -10.09375 L 2.234375 -10.046875 C 2.566406 -10.035156 2.773438 -9.941406 2.859375 -9.765625 L 6.921875 -1.71875 L 10.890625 -9.765625 C 10.972656 -9.929688 11.179688 -10.023438 11.515625 -10.046875 L 12.796875 -10.09375 C 12.953125 -10.09375 13.03125 -10.03125 13.03125 -9.90625 C 13.03125 -9.789062 12.972656 -9.722656 12.859375 -9.703125 L 12.59375 -9.671875 C 12.21875 -9.648438 12.03125 -9.460938 12.03125 -9.109375 L 12.203125 -0.953125 C 12.203125 -0.773438 12.257812 -0.632812 12.375 -0.53125 C 12.5 -0.4375 12.65625 -0.378906 12.84375 -0.359375 L 13.25 -0.328125 C 13.363281 -0.328125 13.421875 -0.265625 13.421875 -0.140625 Z M 13.421875 -0.140625 "/></g></g></g><g fill="#000000" fill-opacity="1"><g transform="translate(221.334667, 189.646937)"><g><path d="M 3.265625 -3.953125 L 6.46875 -3.953125 C 6.570312 -3.953125 6.601562 -4.007812 6.5625 -4.125 L 4.859375 -8.515625 L 3.140625 -4.09375 C 3.117188 -4 3.160156 -3.953125 3.265625 -3.953125 Z M 1.921875 -0.953125 C 1.898438 -0.890625 1.890625 -0.820312 1.890625 -0.75 C 1.890625 -0.675781 1.925781 -0.59375 2 -0.5 C 2.082031 -0.414062 2.191406 -0.367188 2.328125 -0.359375 L 2.640625 -0.328125 C 2.765625 -0.304688 2.828125 -0.242188 2.828125 -0.140625 C 2.828125 -0.00390625 2.753906 0.0625 2.609375 0.0625 L 1.359375 0 L 0.0625 0.0625 C -0.0703125 0.0625 -0.140625 0 -0.140625 -0.125 C -0.140625 -0.257812 -0.0859375 -0.328125 0.015625 -0.328125 L 0.28125 -0.359375 C 0.695312 -0.410156 0.976562 -0.609375 1.125 -0.953125 L 4.8125 -10.03125 C 4.851562 -10.144531 4.960938 -10.203125 5.140625 -10.203125 C 5.328125 -10.203125 5.445312 -10.144531 5.5 -10.03125 L 9.171875 -0.953125 C 9.296875 -0.597656 9.570312 -0.398438 10 -0.359375 L 10.296875 -0.328125 C 10.335938 -0.328125 10.367188 -0.304688 10.390625 -0.265625 C 10.421875 -0.234375 10.4375 -0.195312 10.4375 -0.15625 C 10.4375 -0.0078125 10.367188 0.0625 10.234375 0.0625 L 8.59375 0 L 7.109375 0.0625 C 6.972656 0.0625 6.90625 0.00390625 6.90625 -0.109375 C 6.90625 -0.242188 6.960938 -0.316406 7.078125 -0.328125 L 7.40625 -0.359375 C 7.53125 -0.367188 7.632812 -0.414062 7.71875 -0.5 C 7.800781 -0.582031 7.84375 -0.660156 7.84375 -0.734375 C 7.84375 -0.816406 7.828125 -0.890625 7.796875 -0.953125 L 6.953125 -3.140625 C 6.921875 -3.234375 6.84375 -3.28125 6.71875 -3.28125 L 3 -3.28125 C 2.882812 -3.28125 2.804688 -3.234375 2.765625 -3.140625 Z M 1.921875 -0.953125 "/></g></g></g><g fill="#000000" fill-opacity="1"><g transform="translate(234.502541, 189.646937)"><g><path d="M 4.890625 -10.046875 C 6.421875 -10.046875 7.640625 -9.601562 8.546875 -8.71875 C 9.460938 -7.832031 9.921875 -6.65625 9.921875 -5.1875 C 9.921875 -3.726562 9.445312 -2.5 8.5 -1.5 C 7.5625 -0.5 6.359375 0 4.890625 0 L 2.421875 0 L 0.625 0.078125 C 0.5 0.078125 0.4375 0.015625 0.4375 -0.109375 C 0.4375 -0.242188 0.488281 -0.3125 0.59375 -0.3125 L 1 -0.34375 C 1.195312 -0.363281 1.359375 -0.421875 1.484375 -0.515625 C 1.609375 -0.617188 1.671875 -0.757812 1.671875 -0.9375 L 1.671875 -9.109375 C 1.671875 -9.453125 1.445312 -9.640625 1 -9.671875 L 0.59375 -9.71875 C 0.488281 -9.738281 0.4375 -9.800781 0.4375 -9.90625 C 0.4375 -10.039062 0.5 -10.109375 0.625 -10.109375 L 2.421875 -10.046875 Z M 7.71875 -7.890625 C 7.4375 -8.359375 7.050781 -8.722656 6.5625 -8.984375 C 6.070312 -9.253906 5.507812 -9.390625 4.875 -9.390625 L 3.59375 -9.390625 C 3.382812 -9.390625 3.210938 -9.332031 3.078125 -9.21875 C 2.953125 -9.101562 2.890625 -8.9375 2.890625 -8.71875 L 2.890625 -1.328125 C 2.890625 -1.117188 2.953125 -0.953125 3.078125 -0.828125 C 3.210938 -0.710938 3.382812 -0.65625 3.59375 -0.65625 L 4.953125 -0.65625 C 6.054688 -0.65625 6.9375 -1.03125 7.59375 -1.78125 C 8.257812 -2.539062 8.59375 -3.523438 8.59375 -4.734375 C 8.59375 -5.941406 8.300781 -6.992188 7.71875 -7.890625 Z M 7.71875 -7.890625 "/></g></g></g></svg>